<?xml version="1.0" standalone="no"?><svg xmlns="http://www.w3.org/2000/svg" viewBox="0 0 1440 320"><path fill="#00cba9" fill-opacity="1" d="M0,288L30,266.7C60,245,120,203,180,160C240,117,300,75,360,101.3C420,128,480,224,540,245.3C600,267,660,213,720,197.3C780,181,840,203,900,197.3C960,192,1020,160,1080,144C1140,128,1200,128,1260,160C1320,192,1380,256,1410,288L1440,320L1440,320L1410,320C1380,320,1320,320,1260,320C1200,320,1140,320,1080,320C1020,320,960,320,900,320C840,320,780,320,720,320C660,320,600,320,540,320C480,320,420,320,360,320C300,320,240,320,180,320C120,320,60,320,30,320L0,320Z"></path></svg>